<svg xmlns="http://www.w3.org/2000/svg" width="36" height="40" fill="none" xmlns:v="https://vecta.io/nano"><path d="M35.99 10.263v23.87l-25.516 5.761-9.053-11.523L.623 5.318.601 4.505 23.643.389l12.347 9.873z" fill="#66328e"/><g fill="#000"><path opacity=".1" d="M35.99 10.43v23.703l-25.244 5.702-.271.059-9.052-11.523L.623 5.319l9.439 8.648L35.99 10.43z"/><path opacity=".1" d="M35.99 10.505v23.629l-25.244 5.702-.684-25.869 25.516-3.291.412-.171z"/></g><path d="M21.971 8.157l-1.256-2.18L19.46 3.8l-1.259 2.177-1.256 2.18h2.143V18.22h.743V8.157h2.14zm7.66 20.886l-1.256-2.18-.869 1.508-6.493-6.151-.509.539 6.62 6.274-.007.011-1.256 2.177h2.515 2.511l-1.256-2.177zm2.986-11.693l-2.363-.866.394 2.27-8.469 1.512.13.732 8.466-1.512.342 1.954 1.928-1.612 1.931-1.612-2.359-.865z" fill="#e6e6e6"/></svg>