<svg xmlns="http://www.w3.org/2000/svg" xmlns:xlink="http://www.w3.org/1999/xlink" width="41" height="41" fill="none" xmlns:v="https://vecta.io/nano"><g fill="#66328e"><path d="M15.599 4.341c-1.191-.34-3.062-.681-4.424-.681s-3.233.34-4.424.681c-1.191.17-2.042 1.021-2.212 2.212-.34 1.191-.681 3.063-.681 4.424s.34 3.233.51 4.424 1.191 2.042 2.212 2.212c1.191.17 3.063.51 4.424.51s3.233-.34 4.424-.51 2.042-1.191 2.212-2.212c.17-1.191.51-3.062.51-4.424s-.34-3.233-.51-4.424c0-1.191-.851-2.042-2.042-2.212z"/><use xlink:href="#B"/><path d="M25.467 17.612c1.191.17 3.063.51 4.424.51s3.233-.34 4.424-.51 2.042-1.191 2.212-2.212c.17-1.191.51-3.062.51-4.424s-.34-3.233-.51-4.424-1.191-2.042-2.212-2.212c-1.191-.17-3.063-.51-4.424-.51s-3.233.34-4.424.51-2.042 1.191-2.212 2.212c-.17 1.191-.51 3.063-.51 4.424s.34 3.233.51 4.424 1.021 2.042 2.212 2.212z"/><use xlink:href="#B" x="18.716"/></g><defs ><path id="B" d="M15.599 23.056c-1.191-.17-3.063-.51-4.424-.51s-3.233.34-4.424.51-2.042 1.191-2.212 2.212c-.17 1.191-.51 3.063-.51 4.424s.34 3.233.51 4.424 1.191 2.042 2.212 2.212c1.191.17 3.063.51 4.424.51s3.233-.34 4.424-.51 2.042-1.191 2.212-2.212c.17-1.191.51-3.062.51-4.424s-.34-3.233-.51-4.424-1.021-2.042-2.212-2.212z"/></defs></svg>