<svg xmlns="http://www.w3.org/2000/svg" xmlns:xlink="http://www.w3.org/1999/xlink" width="51" height="36" fill="none" xmlns:v="https://vecta.io/nano"><g fill="#66328e"><path d="M47.555 10.383l.03 22.297c0 .414-.164.811-.456 1.104s-.689.458-1.103.459l-9.262.014c2.607-4.878 4.084-12.555 4.075-18.473a34.82 34.82 0 0 0-.708-6.952l5.861-.009c.414 0 .811.164 1.104.456s.458.689.459 1.103zM33.983 7.335L17.476 7.27l1.605-5.34c.128-.42.387-.787.739-1.049s.779-.404 1.217-.406h.008l9.421.037c.44.004.867.148 1.219.413a2.05 2.05 0 0 1 .734 1.057l1.563 5.353zm9.215-1.827c-.46 0-.9.183-1.226.508a1.73 1.73 0 0 0-.508 1.226h3.466c0-.46-.183-.901-.508-1.226s-.766-.508-1.226-.508z"/><path d="M48.521 35.342H2.964c-.558-.001-1.093-.222-1.487-.617S.86 33.796.86 33.238V9.221c.001-.558.223-1.093.617-1.487s.929-.616 1.487-.617h45.557c.558.001 1.093.223 1.487.617s.617.929.617 1.487v24.016c-.001.558-.222 1.093-.617 1.487s-.929.617-1.487.617zM2.964 7.365a1.86 1.86 0 0 0-1.857 1.857v24.016a1.86 1.86 0 0 0 1.857 1.857h45.557a1.86 1.86 0 0 0 1.857-1.857V9.221a1.86 1.86 0 0 0-1.857-1.857H2.964z"/></g><path d="M27.723 5.322h-3.961A1.05 1.05 0 0 1 22.71 4.27a1.05 1.05 0 0 1 1.052-1.052h3.961a1.05 1.05 0 0 1 1.052 1.052 1.05 1.05 0 0 1-1.052 1.052z" fill="#fff"/><g fill="#66328e"><path d="M25.743 30.638a9.41 9.41 0 0 1-8.692-5.808 9.41 9.41 0 0 1 2.04-10.253 9.41 9.41 0 0 1 10.253-2.04 9.41 9.41 0 0 1 5.808 8.692 9.42 9.42 0 0 1-9.408 9.409zm0-18.569a9.16 9.16 0 0 0-8.464 5.655 9.16 9.16 0 0 0 1.986 9.984 9.16 9.16 0 0 0 9.983 1.986 9.16 9.16 0 0 0 5.655-8.463 9.17 9.17 0 0 0-9.161-9.161z"/><path d="M25.743 27.42a6.19 6.19 0 0 1-4.377-10.567 6.19 6.19 0 0 1 10.567 4.377 6.2 6.2 0 0 1-1.815 4.375c-1.16 1.161-2.734 1.813-4.375 1.815zm0-12.132a5.94 5.94 0 0 0-4.202 10.144 5.94 5.94 0 0 0 9.143-.901 5.94 5.94 0 0 0 1.001-3.301 5.95 5.95 0 0 0-5.942-5.942zm0 10.646c2.598 0 4.704-2.106 4.704-4.704s-2.106-4.704-4.704-4.704-4.704 2.106-4.704 4.704 2.106 4.704 4.704 4.704z"/></g><path d="M22.895 21.23c0-.746.269-1.466.758-2.029s1.165-.93 1.903-1.035c-.439-.062-.886-.03-1.311.095s-.818.341-1.153.631-.603.65-.787 1.053-.279.841-.279 1.285.095.881.279 1.285.453.762.787 1.053.728.506 1.153.631.872.158 1.311.096c-.738-.104-1.414-.472-1.903-1.035s-.758-1.283-.758-2.029z" fill="#fff"/><g fill="#66328e"><path d="M46.293 7.365h-6.19v-.124c0-.821.326-1.608.906-2.188s1.368-.906 2.188-.906 1.608.326 2.188.906.907 1.368.907 2.188v.124zm-5.94-.248h5.689a2.85 2.85 0 0 0-.875-1.933c-.53-.507-1.235-.791-1.969-.791s-1.439.283-1.969.791-.844 1.2-.876 1.933z"/><use xlink:href="#B"/><use xlink:href="#C"/><use xlink:href="#C" x="3.219"/><use xlink:href="#C" x="6.438"/><use xlink:href="#B" x="3.219"/><use xlink:href="#B" x="6.438"/><path d="M17.077 17.872H.983v.248h16.094v-.248zm-.4 4.983H.983v.248h15.694v-.248zm33.825-4.983H34.408v.248h16.094v-.248zm-.028 4.983H34.78v.248h15.694v-.248z"/></g><defs ><path id="B" d="M3.954 10.831a1.24 1.24 0 0 1-1.144-.764 1.24 1.24 0 0 1 .268-1.349 1.24 1.24 0 0 1 1.349-.268 1.24 1.24 0 0 1 .764 1.144 1.24 1.24 0 0 1-1.238 1.238zm0-2.228a.99.99 0 0 0-.915.611.99.99 0 0 0 .215 1.079.99.99 0 0 0 1.079.215.99.99 0 0 0 .611-.915.99.99 0 0 0-.99-.99z"/><path id="C" d="M3.954 10.212a.62.62 0 0 0 .619-.619.62.62 0 0 0-.619-.619.62.62 0 0 0-.619.619.62.62 0 0 0 .619.619z"/></defs></svg>